<mxfile host="app.diagrams.net" modified="2022-12-30T14:56:23.331Z" agent="5.0 (X11)" version="20.7.4" etag="tBhDqHr09qmiwQ-yg_aa" type="github">
  <diagram id="3Vj0eKJbuvM1Jj9rIUJq" name="Page-1">
    <mxGraphModel dx="1434" dy="757" grid="1" gridSize="10" guides="1" tooltips="1" connect="1" arrows="1" fold="1" page="1" pageScale="1" pageWidth="850" pageHeight="1100" math="0" shadow="0">
      <root>
        <mxCell id="0" />
        <mxCell id="1" parent="0" />
        <mxCell id="wO98a_7_Vl4kdaXL6760-1" value="" style="rounded=0;whiteSpace=wrap;html=1;" vertex="1" parent="1">
          <mxGeometry x="120" y="80" width="500" height="650" as="geometry" />
        </mxCell>
        <mxCell id="wO98a_7_Vl4kdaXL6760-2" value="&lt;font face=&quot;Georgia&quot;&gt;Support Service&lt;/font&gt;" style="text;html=1;strokeColor=none;fillColor=none;align=center;verticalAlign=middle;whiteSpace=wrap;rounded=0;" vertex="1" parent="1">
          <mxGeometry x="320" y="50" width="100" height="30" as="geometry" />
        </mxCell>
        <mxCell id="wO98a_7_Vl4kdaXL6760-25" style="rounded=0;orthogonalLoop=1;jettySize=auto;html=1;exitX=0.5;exitY=0.5;exitDx=0;exitDy=0;exitPerimeter=0;fontFamily=Georgia;endArrow=none;endFill=0;" edge="1" parent="1" source="wO98a_7_Vl4kdaXL6760-3" target="wO98a_7_Vl4kdaXL6760-16">
          <mxGeometry relative="1" as="geometry" />
        </mxCell>
        <mxCell id="wO98a_7_Vl4kdaXL6760-27" style="rounded=0;orthogonalLoop=1;jettySize=auto;html=1;exitX=0.5;exitY=0.5;exitDx=0;exitDy=0;exitPerimeter=0;entryX=0;entryY=0.5;entryDx=0;entryDy=0;fontFamily=Georgia;endArrow=none;endFill=0;" edge="1" parent="1" source="wO98a_7_Vl4kdaXL6760-3" target="wO98a_7_Vl4kdaXL6760-17">
          <mxGeometry relative="1" as="geometry" />
        </mxCell>
        <mxCell id="wO98a_7_Vl4kdaXL6760-3" value="User" style="shape=umlActor;verticalLabelPosition=bottom;verticalAlign=top;html=1;outlineConnect=0;" vertex="1" parent="1">
          <mxGeometry x="50" y="160" width="30" height="60" as="geometry" />
        </mxCell>
        <mxCell id="wO98a_7_Vl4kdaXL6760-29" style="edgeStyle=none;rounded=0;orthogonalLoop=1;jettySize=auto;html=1;exitX=0.5;exitY=0.5;exitDx=0;exitDy=0;exitPerimeter=0;entryX=1;entryY=0.5;entryDx=0;entryDy=0;fontFamily=Georgia;endArrow=none;endFill=0;" edge="1" parent="1" source="wO98a_7_Vl4kdaXL6760-14" target="wO98a_7_Vl4kdaXL6760-19">
          <mxGeometry relative="1" as="geometry" />
        </mxCell>
        <mxCell id="wO98a_7_Vl4kdaXL6760-14" value="Support" style="shape=umlActor;verticalLabelPosition=bottom;verticalAlign=top;html=1;outlineConnect=0;" vertex="1" parent="1">
          <mxGeometry x="650" y="370" width="30" height="60" as="geometry" />
        </mxCell>
        <mxCell id="wO98a_7_Vl4kdaXL6760-30" style="edgeStyle=none;rounded=0;orthogonalLoop=1;jettySize=auto;html=1;exitX=0.5;exitY=0.5;exitDx=0;exitDy=0;exitPerimeter=0;entryX=1;entryY=0.5;entryDx=0;entryDy=0;fontFamily=Georgia;endArrow=none;endFill=0;" edge="1" parent="1" source="wO98a_7_Vl4kdaXL6760-15" target="wO98a_7_Vl4kdaXL6760-22">
          <mxGeometry relative="1" as="geometry" />
        </mxCell>
        <mxCell id="wO98a_7_Vl4kdaXL6760-15" value="Administrator" style="shape=umlActor;verticalLabelPosition=bottom;verticalAlign=top;html=1;outlineConnect=0;" vertex="1" parent="1">
          <mxGeometry x="650" y="620" width="30" height="60" as="geometry" />
        </mxCell>
        <mxCell id="wO98a_7_Vl4kdaXL6760-16" value="Viewing previous tickets" style="ellipse;whiteSpace=wrap;html=1;fontFamily=Georgia;" vertex="1" parent="1">
          <mxGeometry x="320" y="120" width="120" height="80" as="geometry" />
        </mxCell>
        <mxCell id="wO98a_7_Vl4kdaXL6760-28" value="Extends" style="edgeStyle=orthogonalEdgeStyle;rounded=0;orthogonalLoop=1;jettySize=auto;html=1;fontFamily=Georgia;dashed=1;endArrow=none;endFill=0;" edge="1" parent="1" source="wO98a_7_Vl4kdaXL6760-17" target="wO98a_7_Vl4kdaXL6760-18">
          <mxGeometry relative="1" as="geometry" />
        </mxCell>
        <mxCell id="wO98a_7_Vl4kdaXL6760-17" value="Submitting a new ticket" style="ellipse;whiteSpace=wrap;html=1;fontFamily=Georgia;" vertex="1" parent="1">
          <mxGeometry x="220" y="230" width="120" height="80" as="geometry" />
        </mxCell>
        <mxCell id="wO98a_7_Vl4kdaXL6760-18" value="Including account information" style="ellipse;whiteSpace=wrap;html=1;fontFamily=Georgia;" vertex="1" parent="1">
          <mxGeometry x="450" y="230" width="120" height="80" as="geometry" />
        </mxCell>
        <mxCell id="wO98a_7_Vl4kdaXL6760-19" value="Viewing submitted tickets" style="ellipse;whiteSpace=wrap;html=1;fontFamily=Georgia;" vertex="1" parent="1">
          <mxGeometry x="380" y="360" width="120" height="80" as="geometry" />
        </mxCell>
        <mxCell id="wO98a_7_Vl4kdaXL6760-34" value="Extends" style="edgeStyle=none;rounded=0;orthogonalLoop=1;jettySize=auto;html=1;dashed=1;fontFamily=Georgia;endArrow=none;endFill=0;" edge="1" parent="1" source="wO98a_7_Vl4kdaXL6760-20" target="wO98a_7_Vl4kdaXL6760-19">
          <mxGeometry relative="1" as="geometry" />
        </mxCell>
        <mxCell id="wO98a_7_Vl4kdaXL6760-20" value="Responding to submitted tickets" style="ellipse;whiteSpace=wrap;html=1;fontFamily=Georgia;" vertex="1" parent="1">
          <mxGeometry x="180" y="360" width="120" height="80" as="geometry" />
        </mxCell>
        <mxCell id="wO98a_7_Vl4kdaXL6760-33" value="Extends" style="edgeStyle=none;rounded=0;orthogonalLoop=1;jettySize=auto;html=1;fontFamily=Georgia;endArrow=none;endFill=0;dashed=1;" edge="1" parent="1" source="wO98a_7_Vl4kdaXL6760-21" target="wO98a_7_Vl4kdaXL6760-19">
          <mxGeometry relative="1" as="geometry" />
        </mxCell>
        <mxCell id="wO98a_7_Vl4kdaXL6760-21" value="Forwarding tickets to administrator" style="ellipse;whiteSpace=wrap;html=1;fontFamily=Georgia;" vertex="1" parent="1">
          <mxGeometry x="380" y="480" width="120" height="80" as="geometry" />
        </mxCell>
        <mxCell id="wO98a_7_Vl4kdaXL6760-22" value="Viewing forwarded tickets" style="ellipse;whiteSpace=wrap;html=1;fontFamily=Georgia;" vertex="1" parent="1">
          <mxGeometry x="320" y="610" width="120" height="80" as="geometry" />
        </mxCell>
      </root>
    </mxGraphModel>
  </diagram>
</mxfile>
